<svg width="59" height="58" viewBox="0 0 59 58" fill="none" xmlns="http://www.w3.org/2000/svg">
<g clip-path="url(#clip0_160_242)">
<path d="M10.4479 0.00488281H48.5521C54.3292 0.00488281 59 4.66505 59 10.4289V46.9745C59 52.7384 54.3292 57.3985 48.5521 57.3985H10.4479C4.67083 57.3985 0 52.7384 0 46.9745V10.4289C0 4.66505 4.67083 0.00488281 10.4479 0.00488281Z" fill="#001E36"/>
<path d="M13.275 40.2551V15.0166C13.275 14.8449 13.3488 14.7468 13.5208 14.7468C13.9388 14.7468 14.3321 14.7468 14.8975 14.7222C15.4875 14.6977 16.1021 14.6977 16.7658 14.6732C17.4296 14.6487 18.1425 14.6487 18.9046 14.6241C19.6667 14.5996 20.4042 14.5996 21.1417 14.5996C23.1575 14.5996 24.8292 14.8449 26.2058 15.36C27.435 15.7769 28.5658 16.4637 29.5 17.3712C30.2867 18.1561 30.9012 19.1126 31.2946 20.1673C31.6633 21.1974 31.86 22.2521 31.86 23.3558C31.86 25.4652 31.3683 27.2066 30.385 28.5801C29.4017 29.9536 28.025 30.9838 26.4271 31.5724C24.7554 32.1856 22.9117 32.4064 20.8958 32.4064C20.3058 32.4064 19.9125 32.4064 19.6667 32.3818C19.4208 32.3573 19.0767 32.3573 18.6096 32.3573V40.2305C18.6342 40.4022 18.5113 40.5494 18.3392 40.5739H13.57C13.3733 40.5739 13.275 40.4758 13.275 40.2551ZM18.6342 19.4805V27.7217C18.9783 27.7462 19.2979 27.7707 19.5929 27.7707H20.8958C21.8546 27.7707 22.8133 27.6236 23.7229 27.3292C24.5096 27.1085 25.1979 26.6425 25.7387 26.0293C26.255 25.4161 26.5008 24.5822 26.5008 23.503C26.5254 22.7426 26.3287 21.9823 25.9354 21.3201C25.5175 20.6824 24.9275 20.1918 24.2146 19.922C23.305 19.5541 22.3217 19.4069 21.3137 19.4315C20.6746 19.4315 20.1092 19.4315 19.6421 19.456C19.1504 19.4315 18.8063 19.456 18.6342 19.4805ZM47.2 26.2255C46.4625 25.8331 45.6758 25.5633 44.84 25.3916C43.9304 25.1954 43.0208 25.0727 42.0867 25.0727C41.595 25.0482 41.0787 25.1218 40.6117 25.2444C40.2921 25.318 40.0217 25.4897 39.8496 25.735C39.7267 25.9312 39.6529 26.1764 39.6529 26.3972C39.6529 26.6179 39.7512 26.8387 39.8987 27.0349C40.12 27.3047 40.415 27.5254 40.7346 27.6971C41.3 27.9915 41.89 28.2613 42.48 28.5065C43.8075 28.948 45.0858 29.5612 46.2658 30.297C47.0771 30.8121 47.7408 31.4988 48.2079 32.3328C48.6012 33.1176 48.7979 33.9761 48.7733 34.8591C48.7979 36.0119 48.4537 37.1646 47.8146 38.1212C47.1262 39.1023 46.1675 39.8626 45.0612 40.3041C43.8567 40.8192 42.3817 41.089 40.6117 41.089C39.4808 41.089 38.3746 40.9909 37.2683 40.7701C36.4079 40.623 35.5475 40.3532 34.7608 39.9853C34.5887 39.8871 34.4658 39.7155 34.4904 39.5192V35.2515C34.4904 35.1779 34.515 35.0798 34.5887 35.0308C34.6625 34.9817 34.7362 35.0062 34.81 35.0553C35.7687 35.6194 36.7767 36.0119 37.8583 36.2571C38.7925 36.5024 39.7758 36.625 40.7592 36.625C41.6933 36.625 42.3571 36.5024 42.7996 36.2816C43.1929 36.11 43.4633 35.693 43.4633 35.2515C43.4633 34.9081 43.2667 34.5893 42.8733 34.2704C42.48 33.9516 41.6687 33.5837 40.4642 33.1176C39.2104 32.6762 38.055 32.0875 36.9733 31.3517C36.2112 30.8121 35.5721 30.1008 35.105 29.2669C34.7117 28.482 34.515 27.6235 34.5396 26.7651C34.5396 25.7104 34.8346 24.7048 35.3754 23.7973C35.99 22.8162 36.8996 22.0314 37.9567 21.5408C39.1121 20.9522 40.5625 20.6824 42.3079 20.6824C43.3158 20.6824 44.3483 20.7559 45.3562 20.9031C46.0937 21.0012 46.8067 21.1974 47.4704 21.4672C47.5687 21.4918 47.6671 21.5899 47.7162 21.688C47.7408 21.7861 47.7654 21.8842 47.7654 21.9823V25.9802C47.7654 26.0783 47.7162 26.1764 47.6425 26.2255C47.4212 26.2746 47.2983 26.2746 47.2 26.2255Z" fill="#31A8FF"/>
</g>
<defs>
<clipPath id="clip0_160_242">
<rect width="59" height="57.4054" fill="white"/>
</clipPath>
</defs>
</svg>
