<svg width="89" height="26" viewBox="0 0 89 26" fill="none" xmlns="http://www.w3.org/2000/svg">
<path d="M81.7958 8.98047C81.5792 8.98047 81.3687 9.02552 81.1824 9.13176L75.2872 12.5626C74.9057 12.784 74.6738 13.2025 74.6738 13.6474V20.4968C74.6738 20.9416 74.9057 21.3593 75.2872 21.5815L76.8268 22.4755C77.5748 22.8472 77.8507 22.8412 78.1912 22.8412C79.2986 22.8412 79.9308 22.164 79.9308 20.987V14.2296C79.9308 14.1341 79.8487 14.0657 79.7556 14.0657H79.0171C78.9225 14.0657 78.8419 14.1358 78.8419 14.2296V20.9905C78.8419 21.5122 78.3027 22.0371 77.4276 21.596L75.8272 20.65C75.7706 20.619 75.727 20.5624 75.727 20.4987V13.6493C75.727 13.5845 75.7701 13.5182 75.8272 13.4854L81.7101 10.0669C81.7652 10.035 81.8308 10.035 81.8852 10.0669L87.7681 13.4854C87.8241 13.5193 87.8683 13.5824 87.8683 13.6493V20.4987C87.8683 20.5641 87.8358 20.6311 87.7806 20.6626L81.8854 24.0812C81.8332 24.1115 81.7636 24.1115 81.7102 24.0812L80.1957 23.1731C80.1505 23.1465 80.0891 23.1486 80.0456 23.1731C79.6276 23.4119 79.5489 23.4396 79.157 23.5767C79.0604 23.6105 78.9134 23.6633 79.2071 23.8291L81.1847 25.0037C81.3729 25.1134 81.5827 25.1676 81.7981 25.1676C82.0164 25.1676 82.2231 25.115 82.4115 25.0037L88.3067 21.5851C88.6882 21.3614 88.9201 20.9452 88.9201 20.5005V13.6511C88.9201 13.2062 88.6882 12.7886 88.3067 12.5663L82.4115 9.13544C82.2267 9.02921 82.0148 8.98415 81.7981 8.98415L81.7958 8.98047ZM83.373 13.8748C81.6942 13.8748 80.6945 14.5948 80.6945 15.792C80.6945 17.0893 81.6867 17.4476 83.298 17.6082C85.2255 17.7984 85.3758 18.0837 85.3758 18.466C85.3758 19.1292 84.8511 19.412 83.6109 19.412C82.0529 19.412 81.7104 19.02 81.5958 18.2374C81.5822 18.1536 81.5182 18.0861 81.4331 18.0861H80.6677C80.6215 18.0871 80.5776 18.1061 80.5449 18.139C80.5123 18.1718 80.4935 18.2161 80.4925 18.2626C80.4925 19.2624 81.0321 20.4447 83.6092 20.4447C85.4746 20.4447 86.5506 19.7084 86.5506 18.4139C86.5506 17.1342 85.6814 16.7883 83.8721 16.5469C82.0455 16.3014 81.8694 16.184 81.8694 15.7522C81.8694 15.396 82.0173 14.9195 83.3714 14.9195C84.581 14.9195 85.028 15.1824 85.2114 16.0043C85.2274 16.0814 85.2949 16.1445 85.374 16.1445H86.1395C86.1865 16.1445 86.232 16.1154 86.2647 16.0814C86.2967 16.0451 86.3194 16.0043 86.3148 15.9552C86.1965 14.5397 85.2599 13.8739 83.3735 13.8739L83.373 13.8748Z" fill="#83CD29"/>
<path d="M47.1373 5.5278e-05C47.0714 0.000175093 47.0067 0.017576 46.9496 0.0505451C46.8927 0.0840771 46.8455 0.13196 46.8126 0.189477C46.7797 0.246993 46.7622 0.312159 46.7619 0.378554V10.0281C46.7619 10.1227 46.718 10.2076 46.6366 10.2551C46.5967 10.2785 46.5514 10.2909 46.5052 10.2909C46.459 10.2909 46.4137 10.2785 46.3738 10.2551L44.8091 9.34698C44.695 9.28044 44.5655 9.2454 44.4337 9.2454C44.3018 9.2454 44.1723 9.28044 44.0582 9.34698L37.8126 12.9796C37.5791 13.1153 37.4368 13.3765 37.4368 13.6481V20.9135C37.4366 21.0465 37.4713 21.1771 37.5372 21.2923C37.6031 21.4074 37.6981 21.503 37.8124 21.5694L44.0582 25.2022C44.1722 25.2689 44.3018 25.304 44.4337 25.304C44.5655 25.304 44.6951 25.2689 44.8091 25.2022L51.0549 21.5694C51.1692 21.503 51.2642 21.4074 51.3301 21.2923C51.396 21.1771 51.4307 21.0465 51.4305 20.9135V2.80031C51.4305 2.52472 51.2812 2.26614 51.0426 2.13185L47.3252 0.0377473C47.2667 0.00496401 47.202 -0.000645969 47.1373 5.5278e-05ZM6.95901 9.06929C6.83984 9.0742 6.72798 9.09506 6.621 9.15764L0.375413 12.7903C0.261001 12.8565 0.16601 12.9521 0.100078 13.0673C0.0341463 13.1824 -0.000379596 13.3132 3.14792e-06 13.4461L0.0127024 23.1968C0.0127024 23.3325 0.0822872 23.4584 0.200581 23.5246C0.316614 23.5948 0.460481 23.5948 0.575992 23.5246L4.28086 21.3802C4.51571 21.24 4.6688 20.9952 4.6688 20.7245V16.1708C4.6688 15.8991 4.81058 15.6501 5.04455 15.5152L6.62169 14.5944C6.73566 14.5276 6.86527 14.4928 6.9971 14.4934C7.12901 14.4926 7.25871 14.5275 7.37269 14.5944L8.94913 15.5146C9.18276 15.6496 9.32454 15.8989 9.32454 16.1703V20.7238C9.32454 20.9949 9.48111 21.241 9.71248 21.3795L13.4173 23.5239C13.5339 23.594 13.6774 23.594 13.7928 23.5239C13.9076 23.4573 13.9806 23.3316 13.9806 23.1961L13.9932 13.4458C13.9939 13.3127 13.9595 13.1819 13.8936 13.0666C13.8276 12.9514 13.7324 12.8559 13.6178 12.7899L7.37217 9.15747C7.26657 9.09506 7.15419 9.07402 7.03416 9.06911L6.95901 9.06929ZM63.0833 9.15764C62.9515 9.15728 62.8219 9.19212 62.7078 9.25862L56.462 12.8914C56.2289 13.0273 56.0862 13.2757 56.0862 13.5471V20.8126C56.0862 21.0857 56.239 21.3332 56.4742 21.4682L62.6698 25.027C62.8986 25.1585 63.1778 25.1685 63.4083 25.0393L67.1633 22.9328C67.2824 22.8662 67.363 22.7417 67.3633 22.6049C67.3637 22.4682 67.2932 22.3451 67.1754 22.2771L60.8919 18.6443C60.7743 18.5766 60.6919 18.4397 60.6919 18.3037V16.0318C60.6919 15.8961 60.7754 15.7716 60.8919 15.704L62.8445 14.5686C62.9607 14.501 63.1033 14.501 63.2202 14.5686L65.1737 15.704C65.2309 15.7371 65.2783 15.7848 65.3113 15.8424C65.3443 15.9 65.3615 15.9653 65.3614 16.0318V17.823C65.3612 17.8894 65.3785 17.9548 65.4114 18.0123C65.4444 18.0699 65.4919 18.1177 65.5491 18.1508C65.6662 18.2188 65.8079 18.2192 65.9248 18.1508L69.6671 15.9564C69.8993 15.8204 70.0429 15.5713 70.0429 15.3007V13.5476C70.0429 13.4147 70.0082 13.2841 69.9422 13.169C69.8763 13.0539 69.7815 12.9583 69.6673 12.8918L63.4591 9.25898C63.345 9.19239 63.2152 9.1572 63.0833 9.15764ZM44.4085 14.5818C44.4435 14.5816 44.4779 14.5903 44.5087 14.6069L46.649 15.8556C46.7071 15.8894 46.7492 15.952 46.7492 16.0195V18.517C46.7492 18.5849 46.7074 18.6473 46.649 18.6809L44.5087 19.9297C44.4504 19.963 44.3793 19.963 44.3208 19.9297L42.1806 18.6809C42.1223 18.6471 42.0804 18.5845 42.0804 18.517V16.0192C42.0804 15.9515 42.1225 15.8894 42.1806 15.8553L44.3208 14.6067C44.3501 14.5897 44.3758 14.5818 44.4085 14.5818Z" fill="white"/>
<path d="M25.7216 9.12128C25.5898 9.12105 25.4602 9.15588 25.3459 9.22225L19.1001 12.8424C18.8667 12.9781 18.7247 13.2395 18.7247 13.5109V20.7763C18.7244 20.9092 18.7589 21.0399 18.8248 21.1551C18.8908 21.2702 18.9857 21.3657 19.1001 21.432L25.3459 25.0647C25.46 25.1315 25.5895 25.1666 25.7214 25.1666C25.8533 25.1666 25.9828 25.1315 26.0969 25.0647L32.3426 21.432C32.457 21.3656 32.5519 21.27 32.6178 21.1549C32.6838 21.0397 32.7184 20.9091 32.7182 20.7761V13.5107C32.7182 13.239 32.5763 12.9778 32.3425 12.8422L26.0967 9.22208C25.9826 9.15539 25.8529 9.12054 25.721 9.1211L25.7216 9.12128ZM63.0713 15.6048C63.0464 15.6048 63.0188 15.6048 62.9962 15.6171L61.7946 16.3236C61.7722 16.3361 61.7535 16.3543 61.7403 16.3765C61.7271 16.3986 61.7199 16.4238 61.7195 16.4496V17.8372C61.7195 17.8894 61.7496 17.9371 61.7946 17.9634L62.9962 18.6571C63.0168 18.67 63.0406 18.6768 63.0649 18.6768C63.0892 18.6768 63.113 18.67 63.1336 18.6571L64.3352 17.9634C64.3797 17.9377 64.4103 17.8894 64.4103 17.8372V16.4496C64.4103 16.3974 64.3799 16.3497 64.3352 16.3234L63.1336 15.6169C63.1113 15.6036 63.096 15.6046 63.071 15.6046L63.0713 15.6048Z" fill="#83CD29"/>
</svg>
