<svg width="76" height="40" viewBox="0 0 76 40" fill="none" xmlns="http://www.w3.org/2000/svg">
<path d="M37.8427 39.3978C58.7427 39.3978 75.6854 30.5783 75.6854 19.6989C75.6854 8.8195 58.7427 0 37.8427 0C16.9428 0 0 8.8195 0 19.6989C0 30.5783 16.9428 39.3978 37.8427 39.3978Z" fill="#8993BE"/>
<path fill-rule="evenodd" clip-rule="evenodd" d="M10.627 31.3627L14.7743 10.3676H24.3642C28.5112 10.6269 30.5849 12.7003 30.5849 16.3294C30.5849 22.55 25.6603 26.1788 21.2537 25.9195H16.5887L15.5519 31.3627H10.627ZM17.6252 22.0318L18.9214 14.2557H22.2908C24.1052 14.2557 25.401 15.0332 25.401 16.5883C25.142 20.9949 23.0684 21.7725 20.7357 22.0318H17.6252ZM29.6214 25.9195L33.7684 4.9248H38.6933L37.6564 10.3676H42.3217C46.4691 10.6269 48.0242 12.7003 47.5059 15.2925L45.6915 25.9195H40.5077L42.322 16.3294C42.581 15.0332 42.581 14.2557 40.7669 14.2557H36.8789L34.5462 25.9195H29.6214ZM45.3595 31.3627L49.5065 10.3676H59.0967C63.244 10.6269 65.3177 12.7003 65.3177 16.3294C65.3177 22.55 60.3928 26.1788 55.9865 25.9195H51.3209L50.2841 31.3627H45.3595ZM52.3574 22.0318L53.6536 14.2557H57.0233C58.8377 14.2557 60.1335 15.0332 60.1335 16.5883C59.8745 20.9949 57.8009 21.7725 55.4682 22.0318H52.3577H52.3574Z" fill="#F5F5F5"/>
</svg>
