<?xml version="1.0" standalone="no"?>
<!DOCTYPE svg PUBLIC "-//W3C//DTD SVG 20010904//EN"
 "http://www.w3.org/TR/2001/REC-SVG-20010904/DTD/svg10.dtd">
<svg version="1.0" xmlns="http://www.w3.org/2000/svg"
 width="840.000000pt" height="840.000000pt" viewBox="0 0 840.000000 840.000000"
 preserveAspectRatio="xMidYMid meet">
<metadata>
Created by potrace 1.14, written by Peter Selinger 2001-2017
</metadata>
<g transform="translate(0.000000,840.000000) scale(0.100000,-0.100000)"
fill="#000000" stroke="none">
<path d="M3410 8363 c-36 -20 -83 -46 -105 -58 -22 -12 -143 -79 -268 -148
-125 -70 -231 -127 -234 -127 -4 0 -14 -6 -22 -14 -9 -7 -58 -36 -108 -62 -51
-27 -101 -53 -110 -59 -10 -5 -50 -28 -88 -49 -39 -22 -86 -48 -105 -59 -19
-11 -69 -38 -110 -60 -41 -22 -79 -43 -85 -47 -5 -4 -41 -24 -80 -45 -38 -20
-191 -107 -340 -193 -148 -85 -279 -160 -290 -166 -11 -6 -22 -13 -25 -16 -3
-3 -24 -14 -47 -25 -24 -11 -43 -23 -43 -27 0 -5 -4 -8 -9 -8 -5 0 -42 -19
-83 -43 -40 -24 -80 -46 -88 -50 -8 -4 -28 -16 -45 -27 -16 -11 -37 -23 -45
-26 -8 -4 -68 -38 -132 -76 -64 -37 -119 -68 -121 -68 -3 0 -35 -18 -71 -40
-36 -22 -70 -40 -75 -40 -5 0 -11 -3 -13 -7 -4 -10 -235 -143 -248 -143 -6 0
-10 -3 -10 -8 0 -4 -13 -13 -29 -20 l-28 -13 0 -2197 0 -2198 46 -25 c25 -13
105 -58 177 -100 72 -42 153 -89 180 -105 73 -41 95 -54 135 -77 41 -25 134
-78 194 -111 22 -13 127 -73 234 -134 106 -62 196 -112 199 -112 3 0 13 -6 21
-14 9 -7 41 -27 71 -43 30 -17 71 -39 90 -50 253 -147 424 -243 431 -243 5 0
9 -4 9 -10 0 -5 5 -10 10 -10 6 0 27 -11 48 -23 20 -13 57 -35 82 -49 80 -45
115 -65 448 -256 180 -104 347 -199 372 -213 25 -13 47 -26 50 -30 5 -5 35
-22 170 -97 25 -14 62 -36 82 -49 21 -12 39 -23 42 -23 2 0 34 -18 70 -40 36
-22 70 -40 76 -40 5 0 10 -4 10 -10 0 -5 4 -10 10 -10 5 0 111 -58 235 -130
125 -71 230 -130 235 -130 5 0 10 -3 12 -7 7 -16 85 -52 94 -44 5 5 30 20 55
34 76 41 94 52 99 58 3 3 20 11 38 18 17 8 32 17 32 22 0 5 5 9 10 9 6 0 70
34 143 76 73 43 157 90 187 107 30 17 66 38 80 47 14 9 50 30 80 47 30 17 113
63 183 104 71 41 147 85 170 97 23 13 67 38 97 56 30 18 62 36 70 40 8 4 33
18 55 32 22 13 48 27 58 30 9 4 17 10 17 15 0 5 4 9 9 9 5 0 48 22 96 50 48
27 89 50 93 50 3 0 13 6 21 14 9 7 43 28 76 46 33 17 117 65 187 106 69 41
131 74 137 74 6 0 11 4 11 8 0 5 23 19 50 32 28 13 50 27 50 32 0 4 5 8 10 8
6 0 70 34 143 76 73 42 146 85 163 94 53 30 307 177 344 198 19 12 62 36 95
55 33 18 152 86 263 150 112 64 208 117 213 117 5 0 9 4 9 9 0 5 12 14 28 20
15 6 45 22 67 36 22 14 51 31 65 38 14 6 27 14 30 18 3 3 20 12 38 20 17 8 32
17 32 20 0 4 8 9 18 12 9 3 44 22 77 42 33 19 70 40 83 47 l22 11 0 2197 c0
1695 -3 2199 -12 2208 -7 7 -20 12 -29 12 -10 0 -19 4 -21 8 -3 8 -45 31 -233
132 -44 24 -82 46 -85 49 -3 3 -25 16 -50 29 -25 12 -72 37 -105 55 -33 19
-176 97 -318 176 -337 186 -330 182 -344 193 -7 6 -13 7 -13 4 0 -4 -12 1 -27
12 -16 10 -68 40 -118 67 -49 27 -106 57 -125 68 -19 11 -60 33 -90 50 -166
91 -216 119 -230 127 -8 5 -51 28 -95 51 -44 23 -82 44 -85 48 -3 3 -21 14
-40 23 -36 18 -96 50 -280 153 -106 58 -127 70 -255 140 -38 21 -135 74 -215
118 -80 44 -170 93 -200 110 -30 16 -75 41 -100 55 -131 72 -129 72 -214 72
-87 0 -106 -7 -157 -61 -19 -21 -29 -25 -42 -17 -12 6 -17 5 -18 -4 -6 -72 -2
-6398 4 -6398 4 0 134 69 290 153 155 85 316 172 357 194 41 22 93 50 115 63
22 12 78 43 125 68 47 25 99 53 116 63 18 10 76 41 130 70 55 29 104 55 109
59 12 9 229 127 355 193 36 19 89 49 118 66 29 17 56 31 60 31 4 0 23 11 42
24 l34 23 1 212 c0 116 -2 211 -4 211 -2 0 -34 -14 -70 -32 -36 -17 -68 -32
-71 -33 -10 -3 -55 -25 -70 -34 -15 -10 -176 -87 -465 -225 -88 -42 -169 -82
-180 -88 -38 -21 -50 -27 -210 -104 -88 -42 -199 -96 -247 -120 -74 -36 -88
-40 -89 -26 0 9 -2 1170 -2 2580 -2 2271 0 2562 13 2562 8 0 26 -9 40 -20 14
-11 29 -20 33 -20 5 0 39 -17 75 -39 37 -21 99 -55 137 -76 39 -21 131 -72
205 -113 74 -41 162 -89 195 -106 33 -17 62 -33 65 -36 3 -4 21 -14 40 -23 19
-10 58 -31 85 -47 28 -15 66 -37 85 -47 19 -9 107 -57 195 -106 88 -49 189
-105 225 -124 142 -78 178 -98 252 -139 43 -24 79 -44 82 -44 2 0 59 -31 126
-70 67 -38 124 -70 126 -70 2 0 59 -31 126 -68 68 -38 155 -86 193 -107 39
-21 104 -57 145 -80 41 -23 82 -45 90 -48 8 -4 33 -17 55 -30 l40 -24 5 -1919
c3 -1055 3 -1934 0 -1953 -3 -19 -13 -39 -25 -45 -10 -6 -37 -22 -60 -36 -41
-25 -52 -31 -120 -69 -22 -12 -56 -32 -75 -43 -19 -11 -98 -56 -175 -101 -77
-44 -156 -89 -175 -100 -19 -11 -55 -31 -80 -45 -25 -14 -56 -32 -70 -41 -31
-20 -137 -80 -207 -117 -29 -16 -53 -32 -53 -36 0 -4 -5 -8 -11 -8 -6 0 -48
-22 -95 -50 -47 -27 -89 -50 -94 -50 -6 0 -10 -4 -10 -8 0 -4 -12 -13 -27 -19
-16 -7 -48 -24 -73 -39 -45 -27 -285 -165 -350 -201 -34 -19 -129 -75 -160
-94 -8 -5 -31 -17 -50 -27 -19 -11 -120 -69 -225 -129 -104 -60 -311 -180
-460 -265 -148 -85 -328 -189 -400 -230 -71 -41 -150 -86 -175 -100 -25 -14
-85 -48 -133 -77 -49 -28 -92 -51 -95 -51 -4 0 -81 43 -171 95 -90 52 -166 95
-168 95 -3 0 -17 8 -31 18 -15 11 -52 33 -82 49 -168 93 -555 318 -558 325 -2
4 -11 8 -20 8 -8 0 -23 6 -31 14 -9 7 -36 25 -61 38 -25 14 -61 35 -80 47 -19
11 -42 24 -50 28 -8 4 -37 20 -65 36 -57 34 -105 61 -155 89 -19 11 -48 28
-65 38 -16 10 -52 30 -78 45 -26 14 -93 52 -148 85 -56 33 -102 60 -104 60 -2
0 -28 14 -57 31 -29 18 -68 40 -85 50 -18 11 -48 27 -65 38 -18 10 -53 30 -78
45 -25 14 -83 47 -129 73 -46 27 -109 63 -140 81 -31 18 -64 35 -73 39 -10 3
-18 9 -18 14 0 5 -4 9 -9 9 -4 0 -79 41 -165 90 -87 50 -161 90 -166 90 -5 0
-10 4 -12 8 -1 4 -30 23 -63 41 -33 18 -153 87 -266 152 l-207 120 2 1951 1
1952 230 134 c127 73 237 136 245 139 8 4 47 26 86 50 39 24 76 43 82 43 6 0
12 3 14 8 4 8 48 35 98 60 19 9 37 20 40 23 3 3 28 18 55 33 28 16 70 40 95
54 25 14 59 33 76 43 70 39 79 44 84 49 3 3 21 14 40 24 19 10 78 44 130 74
160 92 173 99 233 131 32 17 93 51 135 75 97 54 160 89 242 134 36 19 79 43
95 52 17 10 57 32 90 50 123 67 220 121 235 130 8 5 31 17 50 27 19 9 37 19
40 22 3 4 23 15 45 26 22 10 47 24 55 31 8 6 24 14 36 18 l20 6 0 -2579 c0
-2336 -1 -2578 -15 -2571 -79 40 -188 90 -198 90 -7 0 -13 5 -13 10 0 6 -4 10
-9 10 -5 0 -106 47 -224 105 -119 58 -220 105 -226 105 -6 0 -11 5 -11 11 0 5
-5 7 -10 4 -6 -3 -10 -1 -10 6 0 7 -3 9 -6 6 -4 -4 -21 4 -38 16 -17 12 -32
21 -34 19 -2 -3 -33 12 -414 197 -103 50 -191 91 -196 91 -6 0 -7 -14 -2 -35
4 -19 4 -35 0 -35 -4 0 -4 -15 0 -34 4 -19 4 -39 0 -46 -4 -7 -4 -26 -1 -44 4
-17 4 -44 1 -61 -3 -16 -3 -45 1 -63 4 -17 4 -34 0 -36 -4 -3 -5 -21 -3 -40 3
-26 11 -39 31 -49 42 -22 105 -58 117 -68 6 -5 13 -7 16 -4 3 3 11 -1 18 -10
7 -8 16 -15 20 -15 4 0 43 -19 86 -43 123 -68 202 -111 284 -154 41 -22 92
-50 112 -61 44 -25 89 -50 386 -211 123 -66 227 -121 232 -121 5 0 15 -6 22
-13 7 -7 42 -28 78 -47 80 -42 121 -64 185 -99 28 -15 84 -45 125 -68 41 -22
91 -50 111 -61 l37 -21 0 3210 c0 1765 -3 3209 -7 3209 -4 0 -12 -5 -18 -11
-7 -7 -18 -1 -36 21 -41 48 -73 60 -162 59 -73 0 -86 -3 -145 -36z"/>
</g>
</svg>
