<svg width="298" height="21" viewBox="0 0 298 21" fill="none" xmlns="http://www.w3.org/2000/svg">
<path d="M15.9388 1.59428C16.7295 1.00272 17.1248 0.706947 17.56 0.496927C17.9462 0.310565 18.3547 0.174654 18.7756 0.0925388C19.2499 0 19.7436 0 20.7311 0H289.5C292.3 0 293.7 0 294.77 0.544967C295.711 1.02433 296.476 1.78924 296.955 2.73005C297.5 3.79961 297.5 5.19974 297.5 8V13C297.5 15.8003 297.5 17.2004 296.955 18.27C296.476 19.2108 295.711 19.9757 294.77 20.455C293.7 21 292.3 21 289.5 21H14.0479C6.72421 21 3.06239 21 1.6225 19.6592C0.37708 18.4994 -0.192966 16.7859 0.109531 15.1112C0.459265 13.175 3.39134 10.9815 9.25549 6.59427L15.9388 1.59428Z" fill="#050505"/>
</svg>
